<?xml version="1.0" encoding="utf-8"?>
<!-- Generator: Adobe Illustrator 19.0.0, SVG Export Plug-In . SVG Version: 6.00 Build 0)  -->
<svg version="1.1" id="图层_1" xmlns="http://www.w3.org/2000/svg" xmlns:xlink="http://www.w3.org/1999/xlink" x="0px" y="0px"
	 viewBox="0 0 582.7 61" style="enable-background:new 0 0 582.7 61;" xml:space="preserve">
<style type="text/css">
	.st0{fill:#FFFFFF;}
</style>
<g>
	<path class="st0" d="M2.4,60C1,60,0,58.8,0,57.4V3.8c0-1.4,1-2.6,2.4-2.6h24.7c1.4,0,2.4,1.2,2.4,2.6c0,1.5-1.1,2.7-2.4,2.7H4.7
		v50.8C4.7,58.8,3.6,60,2.4,60z M29.5,14.6c0,1.4-1.1,2.6-2.4,2.6H14.3v5.4h8.4c1.3,0,2.4,1.2,2.4,2.7c0,1.4-1.1,2.6-2.4,2.6H11.9
		c-1.4,0-2.4-1.2-2.4-2.6V14.6c0-1.5,1.1-2.6,2.4-2.6h15.2C28.5,11.9,29.5,13,29.5,14.6z M25,35.9c0,1.5-1.1,2.7-2.4,2.7h-8.4v18.7
		c0,1.4-1.1,2.6-2.4,2.6c-1.4,0-2.4-1.2-2.4-2.6V35.9c0-1.4,1.1-2.6,2.4-2.6h10.7C23.9,33.3,25,34.5,25,35.9z"/>
	<path class="st0" d="M40.4,60C39,60,38,58.8,38,57.4V3.8c0-1.4,1.1-2.6,2.4-2.6c1.3,0,2.4,1.2,2.4,2.6v53.5
		C42.7,58.8,41.7,60,40.4,60z M50,60c-1.4,0-2.4-1.2-2.4-2.6V3.8c0-1.4,1.1-2.6,2.4-2.6c1.3,0,2.4,1.2,2.4,2.6v53.5
		C52.3,58.8,51.3,60,50,60z"/>
	<path class="st0" d="M66.2,60.1c-1.3,0-2.4-1.3-2.4-2.7V3.8c0-1.4,1.1-2.6,2.4-2.6c1.4,0,2.4,1.1,2.4,2.6v53.5
		C68.5,58.8,67.5,60.1,66.2,60.1z M73.5,1.8c1.1-1,2.6-0.6,3.3,0.6l16.4,26.3V3.8c0-1.4,1.1-2.6,2.4-2.6c1.3,0,2.4,1.1,2.4,2.6v33.3
		c0,0.9-0.4,1.8-1.1,2.2c-1.1,0.9-2.5,0.6-3.3-0.6L72.9,5.4C72.1,4.2,72.4,2.6,73.5,1.8z M97.9,59.6c-1.1,0.8-2.6,0.5-3.4-0.7
		L78.1,32.6v24.8c0,1.4-1.1,2.6-2.4,2.6c-1.3,0-2.3-1.2-2.3-2.6V24.1c0-0.9,0.3-1.7,1-2.2c1-1,2.6-0.6,3.3,0.6l20.8,33.3
		C99.2,57,98.9,58.6,97.9,59.6z M105.2,60.1c-1.3,0-2.4-1.3-2.4-2.7V3.8c0-1.4,1.1-2.6,2.4-2.6c1.4,0,2.4,1.1,2.4,2.6v53.5
		C107.6,58.8,106.5,60.1,105.2,60.1z"/>
	<path class="st0" d="M121.4,60c-1.3,0-2.4-1.2-2.4-2.6V3.8c0-1.4,1.1-2.6,2.4-2.6h14.3c15.5,0,26.3,12.5,26.3,29.4
		c0,17-10.8,29.4-26.3,29.4H131c-1.3,0-2.4-1.2-2.4-2.6c0-1.5,1.1-2.7,2.4-2.7h4.8c12.8,0,21.5-10.1,21.5-24.1
		c0-13.9-8.7-24-21.5-24h-11.9v50.8C123.9,58.8,122.8,60,121.4,60z M131,49.4c-1.3,0-2.4-1.2-2.4-2.7c0-1.4,1.1-2.6,2.4-2.6h4.7
		c7.1,0,11.6-5.8,11.6-13.4c0-7.5-4.5-13.4-11.6-13.4h-2.4v18.7c0,1.5-1,2.7-2.4,2.7c-1.3,0-2.4-1.2-2.4-2.7V14.6
		c0-1.5,1.1-2.7,2.4-2.7h4.7c9.8,0,16.3,8.2,16.3,18.7c0,10.6-6.5,18.8-16.3,18.8H131z"/>
	<path class="st0" d="M191.9,57.3V4c0-1.6,1.1-2.7,2.4-2.7h18.9c21.7,0,21.6,37.4,0,37.4h-6.9v18.6c0,3.5-4.9,3.5-4.9,0V35.9
		c0-1.4,1.1-2.6,2.4-2.6h9.3c15.4,0,15.4-26.7,0-26.7h-16.4v50.7C196.7,60.8,191.9,60.8,191.9,57.3z M207.2,25.3
		c0-3.3,3.2-2.6,5.1-2.6c3.3,0,3.3-5.4,0-5.4h-8.4c-3.1,0-3.1-5.4,0-5.4h8.4c9.6,0,9.6,16,0,16C210.4,27.9,207.2,28.5,207.2,25.3z"
		/>
	<path class="st0" d="M237.5,57.4V3.8c0-1.4,1.1-2.6,2.4-2.6h18.8c14.7,0,22,20.1,11.7,31.9c-2.1,2.3-4.6,4.1-7.5,4.9L274,55.8
		c1.8,2.9-2.1,6-3.9,3.1l-13.2-21.2c-1.4-2.1,0-4.4,1.8-4.4c10.5,0,15.7-14.6,8.3-22.9c-2.1-2.4-5.1-3.8-8.3-3.8h-16.4v50.8
		C242.2,60.9,237.5,60.9,237.5,57.4z M255.5,27.9c-3.7-0.2-3.9-5.3,0-5.3c2.2,0,4.9,0.4,4.9-2.7c0-1.6-1.1-2.7-2.5-2.7h-8.5
		c-3.1,0-3.1-5.4,0-5.4h8.5c4.4,0,7.2,4.1,7.2,8.2c0,4.5-3.3,7.9-7.2,7.9C257.3,27.9,256.3,28,255.5,27.9z M258.4,58.9l-6.6-10.6
		v9.1c0,3.5-4.8,3.5-4.8,0V39.9c0-2.9,3-3.7,4.4-1.7l10.9,17.5C264.1,58.6,260.3,61.8,258.4,58.9z"/>
	<path class="st0" d="M332.3,24.7c-1.3,0.5-2.7-0.3-3.1-1.8c-1.5-5.1-4.4-9.5-8.3-12.7c-3.7-3-8.4-4.8-13.4-4.8
		c-29.8,0-29.8,50.1,0,50.1c5.1,0,9.7-1.8,13.4-4.8c3.9-3.1,6.8-7.5,8.3-12.7c0.4-1.4,1.8-2.2,3.1-1.8c1.3,0.4,1.9,2,1.6,3.4
		c-1.8,6.2-5.4,11.7-10,15.4c-4.6,3.7-10.2,5.9-16.4,5.9c-36.2,0-36.2-61,0-61c6.1,0,11.7,2.2,16.4,5.8c4.6,3.8,8.2,9.2,10,15.5
		C334.2,22.8,333.6,24.3,332.3,24.7z M293.6,36.5c1.2-0.7,2.6-0.3,3.3,1c1.1,2.1,2.7,3.9,4.6,5c1.7,1.2,3.8,1.9,6,1.9
		c3.4,0,6.5-1.5,8.6-4.1c2.3-2.5,3.6-6,3.6-9.9c0-3.8-1.4-7.4-3.6-9.8c-2.1-2.5-5.2-4.1-8.6-4.1c-2.2,0-4.2,0.6-6,1.8
		c-1.9,1.2-3.4,3-4.6,5c-0.6,1.4-2.1,1.8-3.3,1.1c-1.1-0.7-1.6-2.4-0.9-3.8c1.5-3,3.6-5.4,6.2-7.1c2.6-1.7,5.5-2.6,8.5-2.6
		c4.8,0,9.1,2.2,12.2,5.7c3,3.5,4.9,8.3,4.9,13.7c0,5.4-1.9,10.2-4.9,13.7c-3.1,3.6-7.4,5.8-12.2,5.8c-3,0-5.9-1-8.5-2.6
		c-2.6-1.8-4.7-4.2-6.2-7.2C292.1,38.8,292.5,37.3,293.6,36.5z"/>
	<path class="st0" d="M346,60c-1.3,0-2.4-1.2-2.4-2.6V3.8c0-1.4,1.1-2.6,2.4-2.6h14.3c15.5,0,26.3,12.5,26.3,29.4
		c0,17-10.8,29.4-26.3,29.4h-4.8c-1.3,0-2.4-1.2-2.4-2.6c0-1.5,1.1-2.7,2.4-2.7h4.8c12.8,0,21.5-10.1,21.5-24.1
		c0-13.9-8.7-24-21.5-24h-11.9v50.8C348.4,58.8,347.3,60,346,60z M355.5,49.4c-1.3,0-2.4-1.2-2.4-2.7c0-1.4,1.1-2.6,2.4-2.6h4.7
		c7.1,0,11.6-5.8,11.6-13.4c0-7.5-4.5-13.4-11.6-13.4h-2.4v18.7c0,1.5-1,2.7-2.4,2.7c-1.3,0-2.4-1.2-2.4-2.7V14.6
		c0-1.5,1.1-2.7,2.4-2.7h4.7c9.8,0,16.3,8.2,16.3,18.7c0,10.6-6.5,18.8-16.3,18.8H355.5z"/>
	<path class="st0" d="M395.9,38.6V3.8c0-1.5,1.1-2.7,2.4-2.7c1.4,0,2.4,1.2,2.4,2.7v34.9c0,22.4,30.7,22.4,30.7,0V3.8
		c0-1.5,1-2.7,2.4-2.7c1.3,0,2.4,1.2,2.4,2.7v34.9C436,68,395.9,67.9,395.9,38.6z M405.7,3.8c0-1.5,1.1-2.7,2.4-2.7
		c1.4,0,2.4,1.2,2.4,2.7V38c0,8.5,11.1,8.5,11.1,0V3.8c0-1.5,1-2.7,2.4-2.7c1.3,0,2.4,1.2,2.4,2.7V38c0,15.6-20.7,15.6-20.7,0V3.8z"
		/>
	<path class="st0" d="M480.6,7.4c-2.9-1.4-5.9-2-8.9-2c-12.9,0-22,10.9-22,25c0.1,12.6,7.6,24.8,22.2,24.8c3.1,0,5.9-0.7,8.7-1.9
		c2.9-1.4,4.7,3.6,1.9,4.9c-3.4,1.5-6.9,2.3-10.6,2.3c-17.8,0-26.8-15-26.9-29.9c-0.1-15.2,8.9-30.4,26.9-30.4
		c3.6,0,7.2,0.8,10.6,2.3C485.4,3.8,483.6,8.6,480.6,7.4z M481.4,46.7c-3.1,2-6.4,2.9-9.7,2.8c-8.7-0.2-16.4-7.4-16.4-19.2
		c0-16.5,14.6-23.8,26.2-16.5c2.8,1.6,0.5,6.3-2.2,4.6c-8.3-5.1-19.2-0.6-19.2,11.9c0,8.8,5.5,13.6,11.7,13.8
		c2.5,0.1,5.1-0.6,7.6-2.1C481.9,40.5,484.2,45,481.4,46.7z"/>
	<path class="st0" d="M487.9,3.9c0-1.5,1.1-2.6,2.4-2.6h33.4c1.3,0,2.3,1.1,2.3,2.6c0,1.4-1,2.6-2.3,2.6h-33.4
		C488.9,6.6,487.9,5.4,487.9,3.9z M487.9,14.6c0-1.5,1.1-2.7,2.4-2.7h11.9c1.4,0,2.4,1.2,2.4,2.7v42.6c0,1.5-1.1,2.7-2.4,2.7
		c-1.3,0-2.4-1.2-2.4-2.7V17.2h-9.4C488.9,17.2,487.9,16.1,487.9,14.6z M526,14.6c0,1.4-1,2.6-2.3,2.6h-9.6v40.1
		c0,1.5-1.1,2.7-2.4,2.7c-1.3,0-2.4-1.2-2.4-2.7V14.6c0-1.5,1.1-2.7,2.4-2.7h12C525,11.9,526,13.1,526,14.6z"/>
	<path class="st0" d="M571.8,34.2c2.8-4.8,6.1-9.1,6.1-15.3c0-8.3-5.6-13.3-11.5-13.5c-7.1-0.1-11.9,5.6-11.9,13.5
		c0,3.5-4.8,3.5-4.8,0c0-10.7,6.9-19,16.7-18.7c8.4,0.2,16.2,7.2,16.2,18.7c0,7.8-3.4,12.2-7,18.2C574,40.2,570,37.1,571.8,34.2z
		 M573.8,51.7c0,5-3.3,8.8-7.7,8.8c-4.6,0-7.9-3.8-7.9-8.8c0-4.8,3.2-8.6,7.9-8.6C570.5,43,573.8,46.8,573.8,51.7z M564.3,37.2
		c-1.8,3-5.7-0.1-3.9-3c1.4-2.4,7.4-11.9,8.1-13.8c1.5-4.7-4.6-6.2-4.6-1.4c0,3.5-4.8,3.5-4.8,0c0-7.7,7.9-11,12.4-5.8
		c2.7,3.3,2.5,8.2,0.4,11.8L564.3,37.2z M562.3,51.7c0,2.5,1.4,4,3.7,4c2.1,0,3.6-1.5,3.6-4c0-2.4-1.4-3.9-3.6-3.9
		C563.7,47.8,562.3,49.4,562.3,51.7z"/>
</g>
</svg>
