<?xml version="1.0" encoding="utf-8"?>
<!-- Generator: Adobe Illustrator 18.0.0, SVG Export Plug-In . SVG Version: 6.00 Build 0)  -->
<!DOCTYPE svg PUBLIC "-//W3C//DTD SVG 1.1//EN" "http://www.w3.org/Graphics/SVG/1.1/DTD/svg11.dtd">
<svg version="1.1" id="图层_1" xmlns="http://www.w3.org/2000/svg" xmlns:xlink="http://www.w3.org/1999/xlink" x="0px" y="0px"
	 viewBox="0 0 51.2 60.6" enable-background="new 0 0 51.2 60.6" xml:space="preserve">
<path fill-rule="evenodd" clip-rule="evenodd" fill="#FFFFFF" d="M23.4,60.6c-5.9-4.3-10.6-9-13.9-14.4C6,40.4,4.2,33.9,4.4,26.3
	c0-0.7,0.3-1.4,0.9-1.8l0,0l0,0c0.7-0.6,1.4-1.1,2.1-1.6c0.7-0.5,1.5-0.9,2.4-1.3c4.1-1.9,9.4-2.9,14.6-3.1c0.5,0,0.9,1.1,1.3,1.3
	c0.4-0.3,1-1.4,1.5-1.3c1,0,1.9,0.1,2.9,0.2c1,0.1,2,0.2,3,0.4c5,0.8,9.7,2.6,13.4,5.1c0.6,0.4,1,1.1,1.1,1.8v0c0.1,1.4,0.1,3,0,4.7
	c-1.2,11.8-8.8,23.3-18.9,29.5c0-6.3,3.2-7.6,7.6-13.9c3.3-4.7,5.7-10.3,6.3-16c0.1-0.9,0.1-1.8,0.1-2.6c-4.1-2.5-8.9-3.7-13.6-4.1
	c-0.7,3.2-1.6,5.6-3.3,8.6c-2-2.9-2.8-5.4-3.5-8.6c-3.8,0.3-7.4,1.1-10.4,2.5c-0.6,0.3-1.3,0.6-1.8,1c-0.2,0.1-0.5,0.3-0.7,0.5
	c0.1,6.1,1.6,11.4,4.4,16.1C18.3,51.1,23.4,51.5,23.4,60.6 M0,7.8l5.5,13.1c11.1-6.8,29.1-6.8,40.2,0l5.5-13.1l-9.8,2.4
	c0,0,0.1,4.3-5.8,4c-2.6-0.1-7.2-1.8-7.2-4.5c0-2.7,1.6-3.2,3-4.1c-1.9-1.8-3.9-3.7-5.9-5.5c-1.9,1.6-3.8,3.6-5.9,5.5
	c1.5,1.2,3,1.5,3,4.1c0,2.7-4.6,4.4-7.2,4.5c-5.9,0.3-5.8-4-5.8-4L0,7.8z"/>
</svg>
