<?xml version="1.0" encoding="utf-8"?>
<!-- Generator: Adobe Illustrator 19.0.0, SVG Export Plug-In . SVG Version: 6.00 Build 0)  -->
<svg version="1.1" id="图层_1" xmlns="http://www.w3.org/2000/svg" xmlns:xlink="http://www.w3.org/1999/xlink" x="0px" y="0px"
	 viewBox="0 0 86.6 82.4" style="enable-background:new 0 0 86.6 82.4;" xml:space="preserve">
<style type="text/css">
	.st0{fill-rule:evenodd;clip-rule:evenodd;fill:#26415C;}
</style>
<g>
	<path class="st0" d="M41.3,47.4c-4.6-3.3-8.3-7-10.9-11.3c-2.7-4.5-4.1-9.6-4-15.5c0-0.6,0.3-1.1,0.7-1.4l0,0l0,0
		c0.5-0.4,1.1-0.9,1.7-1.2c0.6-0.4,1.2-0.7,1.9-1c3.2-1.5,7.4-2.3,11.4-2.4c0.4,0,0.7,0.9,1,1c0.3-0.2,0.8-1.1,1.2-1
		c0.8,0,1.5,0.1,2.3,0.1c0.8,0.1,1.6,0.2,2.3,0.3c4,0.7,7.6,2,10.5,4c0.5,0.3,0.8,0.9,0.8,1.4v0c0.1,1.1,0.1,2.4,0,3.7
		c-1,9.2-6.9,18.3-14.8,23.1c0-5,2.5-5.9,6-10.9c2.6-3.7,4.5-8.1,5-12.6c0.1-0.7,0.1-1.4,0.1-2c-3.2-1.9-7-2.9-10.7-3.2
		c-0.5,2.5-1.2,4.4-2.6,6.7c-1.5-2.3-2.2-4.2-2.8-6.7c-2.9,0.2-5.8,0.9-8.1,2c-0.5,0.2-1,0.5-1.4,0.8c-0.2,0.1-0.4,0.2-0.5,0.4
		c0,4.8,1.3,8.9,3.5,12.6C37.3,40,41.3,40.3,41.3,47.4 M23,6.1l4.3,10.3c8.7-5.3,22.8-5.3,31.5,0l4.3-10.3L55.4,8
		c0,0,0.1,3.4-4.5,3.1c-2-0.1-5.6-1.4-5.6-3.6c0-2.1,1.3-2.5,2.4-3.2C46.2,2.9,44.5,1.4,43,0c-1.5,1.2-3,2.8-4.6,4.3
		c1.2,1,2.3,1.1,2.4,3.2c0,2.1-3.6,3.5-5.6,3.6C30.5,11.4,30.6,8,30.6,8L23,6.1z"/>
	<path class="st0" d="M20.2,76.5h-4.3v-1.1h9.7v1.1h-4.1v0.7h4.3l0.3,0v0.3V78v0.3h-0.3h-4.3V79h4.7h0.3v1.1h-0.3h-4.7v0.4v0
		c0,0.8-0.6,1.5-1.3,1.7c-0.5,0.1-1.2,0-1.9,0V81h1.5c0.2,0,0.4-0.2,0.4-0.4v-0.4h-5.1h-0.3V79h0.3h5.1v-0.7h-4.4h-0.3V78v-0.5v-0.3
		h0.3h4.4V76.5z M18.5,71.2v-0.7v-0.1h4.2v0.1v0.7H18.5z M22.6,72.2V75H24v-2.7c0.8,0,0.6,0,2.1,0v-1h-0.3H24v-0.8h2.6V69h-5.4v-0.7
		V68h-0.3h-1h-0.3v0.3V69h-4.1c-1,0-2,0.9-2.1,2v0l-0.6,11.3c0.5,0,0.9,0,1.3,0l0.6-11.2c0-0.4,0.3-0.7,0.7-0.7v0h1.6v0.1v0.7h-2.1
		v1.1c1.1,0,1,0,2.1,0V75h1.3c0-1,0-2.1-0.1-2.7C20.2,72.3,21,72.3,22.6,72.2"/>
	<path class="st0" d="M34.3,82.4h-1.8V81h1.8c0.3,0,0.7-0.3,0.7-0.7l0-9.1h1.3v9.1C36.3,81.3,35.7,82.4,34.3,82.4"/>
	<path class="st0" d="M29.8,68.1l1.5,0l0,0.9h10.5h0.4L42,69.4l-1,3.4c-0.4-0.1-0.9-0.3-1.3-0.4l0.6-2H29.8L29.8,68.1z"/>
	<path class="st0" d="M56.4,82.2h-2.5c-0.9,0-1.8-0.6-1.8-1.8l0-9.8c0-1,0.4-1.8,1.8-1.8h2.5c1,0,1.8,0.8,1.8,1.8l0,9.8
		C58.2,81.4,57.8,82.2,56.4,82.2 M53.9,80.8h2.5c0.2,0,0.4-0.2,0.4-0.4l0-9.8c0-0.2-0.2-0.4-0.4-0.5h-2.5c-0.2,0-0.4,0.2-0.4,0.5
		v9.7C53.5,80.7,53.6,80.8,53.9,80.8 M43.9,69l5.4,0c1.1,0,2,0.9,2.1,2.1l0,9c0,1.2-0.7,2-2.1,2.1l-2,0v-1.3h2
		c0.3,0,0.7-0.2,0.7-0.7l0-9c0-0.5-0.2-0.6-0.5-0.7l0,0l0,0h0c0,0-0.1,0-0.1,0h0h-5.8L43.9,69z"/>
	<path class="st0" d="M65.8,69.2V68h1.3v1.2h1c-0.2,0.4-0.3,0.7-0.3,1.3h-0.7v7.3h0.7v1.3h-1.2l1.3,3.1c-0.4,0-0.9,0-1.5,0l-1-2.5
		c-0.3-0.6-0.5-0.6-0.8-0.7c-0.5,0-0.7,0-1,0c-0.3,0-0.5,0.2-0.7,0.6l-1.1,2.4l-1.4,0l1.3-3l0-0.1h-1.6v-1.3h1.1v-7.3h-1.1v-1.3h1.1
		V68h1.3v1.2H65.8z M68.5,70.3c0-1.1,0.9-2,2-2h4v1.3h-3.9c-0.5,0-0.8,0.3-0.8,0.8l0,1.4l4.7,0c0,0.4,0,0.9,0,1.3h-1.1v9h-1.3v-9
		h-2.2l-0.1,9h-1.4C68.4,78.2,68.4,74.4,68.5,70.3 M65.8,73l-3.2,0.8v1.7l3.2-0.8V73z M65.8,70.5h-3.2v2l3.2-0.8V70.5z M65.8,76
		l-3.2,0.8v1h3.2V76z"/>
	<path class="st0" d="M8.1,63.1L7.5,57l-2.7,6.1H4.3L1.4,57l-0.5,6.1H0L0.8,55h1.5l2.7,5.7L7.4,55h1.4l0.8,8.1H8.1z M22.8,59.1
		c0,0.6-0.1,1.2-0.2,1.7c-0.2,0.5-0.4,0.9-0.7,1.3c-0.3,0.4-0.7,0.6-1.2,0.8c-0.5,0.2-1,0.3-1.7,0.3c-0.7,0-1.2-0.1-1.7-0.3
		c-0.5-0.2-0.9-0.5-1.2-0.8c-0.3-0.4-0.5-0.8-0.7-1.3c-0.1-0.5-0.2-1.1-0.2-1.7c0-0.6,0.1-1.2,0.2-1.7c0.1-0.5,0.4-0.9,0.7-1.3
		c0.3-0.4,0.7-0.6,1.2-0.8c0.5-0.2,1-0.3,1.7-0.3c0.6,0,1.2,0.1,1.7,0.3c0.5,0.2,0.9,0.5,1.2,0.8c0.3,0.4,0.6,0.8,0.7,1.3
		C22.7,57.9,22.8,58.4,22.8,59.1 M21.2,59.1c0-0.5,0-0.9-0.1-1.3c-0.1-0.4-0.2-0.7-0.4-1c-0.2-0.3-0.4-0.5-0.7-0.6
		c-0.3-0.1-0.6-0.2-1-0.2c-0.3,0-0.6,0-0.9,0.1c-0.3,0.1-0.5,0.2-0.7,0.3c-0.2,0.1-0.3,0.4-0.4,0.9c-0.1,0.4-0.1,1.1-0.1,1.8
		c0,0.5,0,0.9,0.1,1.3c0.1,0.4,0.2,0.7,0.3,1c0.2,0.3,0.4,0.5,0.6,0.7c0.3,0.2,0.6,0.2,1,0.2c0.4,0,0.8,0,1-0.1
		c0.3-0.1,0.5-0.2,0.7-0.3c0.1-0.1,0.2-0.2,0.2-0.3c0.1-0.2,0.1-0.4,0.2-0.6c0-0.3,0.1-0.5,0.1-0.8C21.2,59.7,21.2,59.4,21.2,59.1
		 M30.7,59.8h-0.5v3.3h-1.5v-8c0.3,0,0.7,0,1.1-0.1c0.4,0,0.8,0,1.1,0c0.9,0,1.6,0.2,2.1,0.5c0.5,0.4,0.7,0.9,0.7,1.7
		c0,0.3,0,0.6-0.1,0.9c-0.1,0.2-0.2,0.5-0.3,0.7c-0.1,0.2-0.3,0.3-0.5,0.5c-0.2,0.1-0.4,0.2-0.5,0.3c0.2,0.4,0.4,0.8,0.6,1.2
		c0.2,0.4,0.4,0.7,0.6,1c0.2,0.3,0.4,0.5,0.6,0.6c0.2,0.2,0.4,0.2,0.7,0.2h0.1V63c-0.1,0-0.3,0.1-0.4,0.1c-0.2,0-0.3,0-0.5,0
		c-0.3,0-0.5,0-0.7-0.1c-0.2-0.1-0.4-0.2-0.6-0.3c-0.2-0.2-0.4-0.4-0.6-0.8c-0.2-0.3-0.5-0.8-0.7-1.4L30.7,59.8z M30.5,59
		c0.2,0,0.4,0,0.6-0.1c0.2-0.1,0.4-0.1,0.5-0.2c0.1,0,0.1-0.1,0.2-0.2c0.1-0.1,0.1-0.1,0.2-0.3c0-0.1,0.1-0.2,0.1-0.4
		c0-0.2,0-0.4,0-0.6c0-0.3,0-0.5-0.1-0.7c-0.1-0.2-0.2-0.3-0.3-0.4c-0.1-0.1-0.3-0.2-0.5-0.2c-0.2-0.1-0.4-0.1-0.6-0.1
		c-0.1,0-0.1,0-0.2,0c-0.1,0-0.1,0-0.2,0V59H30.5z M44.5,63.1h-4.6v-8h4.4l-0.1,0.8l-2.8,0v2.6l2.6,0L44,59.3l-2.6,0.1v2.9l3.1,0.1
		L44.5,63.1z M57.7,55.6c-0.1,0-0.3,0-0.4,0.1c-0.1,0-0.3,0.1-0.4,0.2c-0.1,0.1-0.3,0.2-0.4,0.3c-0.1,0.1-0.3,0.3-0.5,0.5
		c-0.2,0.2-0.4,0.4-0.6,0.7c-0.2,0.2-0.4,0.5-0.7,0.8c0.3,0.6,0.6,1.2,0.9,1.8c0.3,0.5,0.6,1,0.9,1.4c0.3,0.4,0.6,0.7,0.8,0.9
		c0.3,0.2,0.6,0.3,0.9,0.3h0.1V63c-0.2,0-0.3,0.1-0.5,0.1c-0.2,0-0.4,0-0.6,0c-0.4,0-0.7-0.1-1-0.2c-0.3-0.1-0.5-0.3-0.8-0.6
		c-0.3-0.3-0.5-0.7-0.8-1.2c-0.3-0.5-0.6-1.1-0.9-1.9c0,0-0.1,0.1-0.1,0.2c-0.1,0.1-0.1,0.1-0.2,0.2c-0.1,0.1-0.1,0.1-0.2,0.2
		c-0.1,0.1-0.1,0.1-0.1,0.2v3.1h-1.5v-8h1.5v3.7c0.2-0.2,0.3-0.4,0.5-0.7c0.2-0.3,0.4-0.5,0.7-0.8c0.2-0.3,0.4-0.5,0.6-0.8
		c0.2-0.2,0.4-0.4,0.5-0.6c0.2-0.2,0.3-0.4,0.5-0.5c0.1-0.1,0.3-0.2,0.4-0.3c0.1-0.1,0.3-0.1,0.4-0.1c0.2,0,0.3,0,0.5,0
		c0.1,0,0.2,0,0.3,0c0.1,0,0.2,0,0.2,0v0.5H57.7z M68.1,63.1l-0.9-2.7l-2.9,0l-0.9,2.7h-1l3-7.9l1.5-0.3l2.8,8.2H68.1z M67,59.6
		l-1.2-3.5l-1.2,3.5H67z M79.6,60.7c0,0.3-0.1,0.6-0.2,0.9c-0.1,0.3-0.3,0.6-0.6,0.8c-0.3,0.2-0.6,0.4-0.9,0.6
		c-0.4,0.1-0.8,0.2-1.2,0.2c-0.2,0-0.5,0-0.7,0c-0.2,0-0.4-0.1-0.6-0.1c-0.2-0.1-0.4-0.1-0.5-0.2c-0.2-0.1-0.3-0.2-0.5-0.2l0.4-1.2
		c0.1,0.1,0.3,0.2,0.4,0.2c0.2,0.1,0.4,0.2,0.6,0.2c0.2,0.1,0.4,0.1,0.6,0.2c0.2,0,0.4,0.1,0.6,0.1c0.2,0,0.4,0,0.5,0
		c0.1,0,0.2-0.1,0.4-0.1c0.1,0,0.2-0.2,0.3-0.3c0.1-0.2,0.1-0.4,0.1-0.7c0-0.3-0.1-0.5-0.3-0.7c-0.2-0.2-0.4-0.3-0.7-0.4
		c-0.3-0.1-0.6-0.2-0.9-0.4c-0.3-0.1-0.6-0.3-0.9-0.5c-0.3-0.2-0.5-0.4-0.7-0.7c-0.2-0.3-0.3-0.7-0.3-1.2c0-0.2,0.1-0.5,0.2-0.7
		c0.1-0.3,0.3-0.5,0.5-0.7c0.2-0.2,0.5-0.4,0.9-0.5c0.3-0.1,0.7-0.2,1.2-0.2c0.3,0,0.7,0,1,0.1c0.3,0,0.6,0.1,0.9,0.1L79,56.4
		c-0.1-0.1-0.3-0.1-0.5-0.1c-0.2,0-0.4-0.1-0.5-0.1c-0.2,0-0.4-0.1-0.5-0.1c-0.2,0-0.3,0-0.5,0c-0.1,0-0.3,0-0.4,0
		c-0.1,0-0.2,0.1-0.3,0.1c-0.1,0.1-0.2,0.2-0.2,0.3c0,0.1-0.1,0.3-0.1,0.5c0,0.2,0.1,0.4,0.2,0.5c0.1,0.1,0.2,0.3,0.4,0.4
		c0.2,0.1,0.4,0.2,0.6,0.3c0.2,0.1,0.4,0.2,0.7,0.3c0.2,0.1,0.5,0.2,0.7,0.3c0.2,0.1,0.4,0.3,0.6,0.5c0.2,0.2,0.3,0.4,0.4,0.7
		C79.5,60,79.6,60.4,79.6,60.7 M86.6,63.1h-1.5v-8h1.5V63.1z"/>
	<polygon class="st0" points="18.8,72.9 20.1,72.9 20.6,74.1 21,72.9 22.3,72.9 21.4,75 19.8,75 	"/>
	<path class="st0" d="M17,72.9h-1.2c-0.3,1-0.4,1.2-0.7,2.1h1.3L17,72.9z"/>
	<path class="st0" d="M24.2,72.9h1.2c0.3,1,0.4,1.2,0.7,2.1h-1.3L24.2,72.9z"/>
	<path class="st0" d="M29.8,81.1l2.9-7.1c-0.4-0.2-0.8-0.3-1.2-0.5l-2.9,7.1l-0.1,0.3l0.3,0.1l0.7,0.3l0.3,0.1L29.8,81.1z"/>
	<path class="st0" d="M48.3,68.2l-1.3,0l-3.8,13l-3.8-7.6c-0.4,0.2-0.8,0.3-1.2,0.5l4.1,8.3l0.9,0l0.9,0L48.3,68.2z"/>
</g>
</svg>
